<?xml version="1.0" standalone="no"?>
<!DOCTYPE svg PUBLIC "-//W3C//DTD SVG 20010904//EN"
 "http://www.w3.org/TR/2001/REC-SVG-20010904/DTD/svg10.dtd">
<svg version="1.0" xmlns="http://www.w3.org/2000/svg"
 width="270.000000pt" height="270.000000pt" viewBox="0 0 270.000000 270.000000"
 preserveAspectRatio="xMidYMid meet">
<metadata>
Created by potrace 1.16, written by Peter Selinger 2001-2019
</metadata>
<g transform="translate(0.000000,270.000000) scale(0.100000,-0.100000)"
fill="#000000" stroke="none">
<path d="M510 2445 l0 -85 -85 0 -85 0 0 -85 0 -85 -170 0 -170 0 0 -85 0 -85
170 0 170 0 0 -250 0 -250 85 0 85 0 0 -505 0 -505 165 0 165 0 0 -85 0 -85
170 0 170 0 0 -85 0 -85 -85 0 -85 0 0 -85 0 -85 170 0 170 0 0 170 0 170 255
0 255 0 0 -85 0 -85 -85 0 -85 0 0 -85 0 -85 170 0 170 0 0 170 0 170 80 0 80
0 0 85 0 85 85 0 85 0 0 250 0 250 170 0 170 0 0 85 0 85 -85 0 -85 0 0 85 0
85 85 0 85 0 0 85 0 85 -170 0 -170 0 0 85 0 85 -250 0 -250 0 0 85 0 85 -255
0 -255 0 0 250 0 250 -85 0 -85 0 0 85 0 85 -335 0 -335 0 0 -85z m500 -170
l0 -85 85 0 85 0 0 -250 0 -250 255 0 255 0 0 -85 0 -85 250 0 250 0 0 -505 0
-505 -590 0 -590 0 0 80 0 80 -165 0 -165 0 0 340 0 340 80 0 80 0 0 85 0 85
170 0 170 0 0 85 0 85 -335 0 -335 0 0 250 0 250 85 0 85 0 0 85 0 85 165 0
165 0 0 -85z"/>
<path d="M680 2105 l0 -85 80 0 80 0 0 85 0 85 -80 0 -80 0 0 -85z"/>
<path d="M1180 1010 l0 -170 255 0 255 0 0 85 0 85 85 0 85 0 0 85 0 85 -85 0
-85 0 0 -85 0 -85 -170 0 -170 0 0 85 0 85 -85 0 -85 0 0 -170z"/>
</g>
</svg>
